<svg xmlns="http://www.w3.org/2000/svg" height="20" viewBox="0 -960 960 960" width="20"><path d="M222.783-124.782q-40.426 0-69.213-28.788-28.788-28.787-28.788-69.213v-514.434q0-40.426 28.788-69.213 28.787-28.788 69.213-28.788h123.216q40.425 0 69.213 28.788Q444-777.643 444-737.217v514.434q0 40.426-28.788 69.213-28.788 28.788-69.213 28.788H222.783Zm391.218 0q-39.725 0-68.863-28.788Q516-182.357 516-222.783v-159.216q0-40.425 29.138-69.213Q574.276-480 614.001-480h123.216q40.426 0 69.213 28.788 28.788 28.788 28.788 69.213v159.216q0 40.426-28.788 69.213-28.787 28.788-69.213 28.788H614.001Zm0-427.218q-39.725 0-68.863-29.138Q516-610.276 516-650.001v-87.216q0-40.426 29.138-69.213 29.138-28.788 68.863-28.788h123.216q40.426 0 69.213 28.788 28.788 28.787 28.788 69.213v87.216q0 39.725-28.788 68.863Q777.643-552 737.217-552H614.001Z"/></svg>