<svg xmlns="http://www.w3.org/2000/svg" height="20" viewBox="0 -960 960 960" width="20"><path d="M144-144v-72h72v72h-72Zm0-144v-72h72v72h-72Zm0-152v-72h72v72h-72Zm0-152v-72h72v72h-72Zm0-152v-72h72v72h-72Zm150 600v-72h72v72h-72Zm0-296v-72h72v72h-72Zm0-304v-72h72v72h-72Zm150 600v-72h72v72h-72Zm0-144v-72h72v72h-72Zm0-152v-72h72v72h-72Zm0-152v-72h72v72h-72Zm0-152v-72h72v72h-72Zm150 600v-72h72v72h-72Zm0-296v-72h72v72h-72Zm0-304v-72h72v72h-72Zm150 600v-72h72v72h-72Zm0-144v-72h72v72h-72Zm0-152v-72h72v72h-72Zm0-152v-72h72v72h-72Zm0-152v-72h72v72h-72Z"/></svg>