<svg xmlns="http://www.w3.org/2000/svg" height="20" viewBox="0 -960 960 960" width="20"><path d="M283-120q-35 0-59.5-24.5T199-204v-510q-17 0-29.5-12.5T157-756q0-17 12.5-29.5T199-798h162q0-17 12.5-29.5T403-840h153q17 0 29.5 12.5T598-798h162q17 0 29.5 12.5T802-756q0 17-12.5 29.5T760-714v510q0 35-24.5 59.5T676-120H283Zm74-210q0 17 12.5 29.5T399-288q17 0 29.5-12.5T441-330v-258q0-17-12.5-29.5T399-630q-17 0-29.5 12.5T357-588v258Zm160 0q0 17 12.5 29.5T559-288q17 0 29.5-12.5T601-330v-258q0-17-12.5-29.5T559-630q-17 0-29.5 12.5T517-588v258Z"/></svg>