<svg xmlns="http://www.w3.org/2000/svg" height="20" viewBox="0 -960 960 960" width="20"><path d="M201.857-80Q185-80 172.5-92.5T160-122q0-17 12.5-29.5t29.357-12.5h555.286Q774-164 786.5-151.5T799-122q0 17-12.5 29.5T757.143-80H201.857Zm0-716Q185-796 172.5-808.5T160-838q0-17 12.5-29.5t29.357-12.5h555.286Q774-880 786.5-867.5T799-838q0 17-12.5 29.5T757.143-796H201.857ZM479-223q-8 0-15.7-2.955-7.7-2.954-14.3-10.045L346-339q-12-11.767-12-28.884 0-17.116 12.857-30.159Q358.643-410 376.321-410 394-410 406-398l31 32v-228l-32 32q-12.273 12-28.636 12-16.364 0-29.407-13.043Q335-575 335-592.5t12-29.5l102-102q6.6-7.091 14.3-10.045Q471-737 479-737q8 0 15.7 2.955 7.7 2.954 14.3 10.045l103 103q12 12 12.5 28.5t-12.357 29.543Q600.357-551 582.679-551 565-551 553-563l-32-31v228l32-32q12.273-12 28.636-12 16.364 0 29.407 13.043Q623-385 623-367.5T611-338L509-236q-6.6 7.091-14.3 10.045Q487-223 479-223Z"/></svg>