<svg xmlns="http://www.w3.org/2000/svg" height="20" viewBox="0 -960 960 960" width="20"><path d="M216-144q-29.7 0-50.85-21.15Q144-186.3 144-216h72v72Zm-72-150v-72h72v72h-72Zm0-150v-72h72v72h-72Zm0-150v-72h72v72h-72Zm0-150q0-29.7 21.15-50.85Q186.3-816 216-816v72h-72Zm144 456v-384h384v384H288Zm6 144v-72h72v72h-72Zm0-600v-72h72v72h-72Zm66 384h240v-240H360v240Zm84 216v-72h72v72h-72Zm0-600v-72h72v72h-72Zm150 600v-72h72v72h-72Zm0-600v-72h72v72h-72Zm150 600v-72h72q0 30-21.15 51T744-144Zm0-150v-72h72v72h-72Zm0-150v-72h72v72h-72Zm0-150v-72h72v72h-72Zm0-150v-72q29.7 0 50.85 21.15Q816-773.7 816-744h-72Z"/></svg>