<svg xmlns="http://www.w3.org/2000/svg" height="20" viewBox="0 -960 960 960" width="20"><path d="M480-215.521 314.304-116.39q-14.956 8.261-29.413 6.978-14.457-1.282-25.283-9.543t-16.24-22.435q-5.413-14.175-1.282-29.131l43.565-184.696-146.696-124.696q-12.391-10.826-15.239-25-2.848-14.174.717-27.566 3.566-13.391 15.24-22.717 11.674-9.327 27.631-10.327l191.695-17 76.131-176.261q6.696-15.522 18.804-22.717 12.109-7.196 26.066-7.196 13.957 0 26.066 7.196 12.108 7.195 18.804 22.717l76.131 177.261 191.695 16q15.957 1 27.631 10.827 11.674 9.826 15.24 23.217 3.565 13.392.217 27.066t-15.739 24.5L674.349-355.217l43.565 184.696q4.131 14.956-1.283 29.131-5.413 14.174-16.239 22.435t-25.283 9.543q-14.457 1.283-29.413-6.978L480-215.521Z"/></svg>